# xmcd
#
# Track frame offsets: 
#        150
#        17214
#        43759
#        63742
#        78855
#        97734
#        119660
#        138525
#        158630
#        185903
#        216335
#
# Disc length: 3074 seconds
#
# Revision: 0
# Processed by: cddbd v1.5.2PL0 Copyright (c) Steve Scherf et al.
# Submitted via: ExactAudioCopy v1.0b1
#
DISCID=9e0c000b
DTITLE=The Loose Marbles with Meschiya Lake - The Loose Marbles with M
DTITLE=eschiya Lake
DYEAR=2007
DGENRE=Acid Jazz
TTITLE0=Milenburg Joys
TTITLE1=When I Get Low I Get High
TTITLE2=Electric Chair Blues
TTITLE3=4 or 5 Times
TTITLE4=Tell Me Your Dreams
TTITLE5=Some Of These Days
TTITLE6=Trouble In  Mind
TTITLE7=I Get The Blues When It Rains
TTITLE8=What Am I Living For
TTITLE9=Tishimingo Blues
TTITLE10=My Life Will Be Sweeter
EXTD=
EXTT0=
EXTT1=
EXTT2=
EXTT3=
EXTT4=
EXTT5=
EXTT6=
EXTT7=
EXTT8=
EXTT9=
EXTT10=
PLAYORDER=
